<svg width="73" height="73" viewBox="0 0 73 73" fill="none" xmlns="http://www.w3.org/2000/svg">
<g clip-path="url(#clip0_3_11)">
<path d="M36.0678 1C28.9343 1 21.9609 3.11534 16.0296 7.07852C10.0983 11.0417 5.47541 16.6747 2.74552 23.2652C0.0156288 29.8558 -0.698635 37.1078 0.693047 44.1043C2.08473 51.1007 5.51986 57.5274 10.564 62.5716C15.6082 67.6157 22.0348 71.0509 29.0313 72.4426C36.0278 73.8342 43.2798 73.12 49.8703 70.3901C56.4609 67.6602 62.0939 63.0373 66.0571 57.106C70.0202 51.1747 72.1356 44.2013 72.1356 37.0678L54.1017 37.0678C54.1017 40.6346 53.044 44.1212 51.0624 47.0869C49.0808 50.0526 46.2643 52.364 42.9691 53.7289C39.6738 55.0939 36.0478 55.451 32.5496 54.7552C29.0513 54.0593 25.838 52.3418 23.3159 49.8197C20.7938 47.2976 19.0763 44.0843 18.3804 40.586C17.6846 37.0878 18.0417 33.4618 19.4066 30.1665C20.7716 26.8713 23.083 24.0547 26.0487 22.0732C29.0144 20.0916 32.501 19.0339 36.0678 19.0339L36.0678 1Z" fill="white"/>
<path d="M36.2824 0.106099C31.5459 0.0921658 26.8531 1.01129 22.4717 2.81098C18.0905 4.61067 14.1066 7.25571 10.7476 10.595C7.38857 13.9344 4.72015 17.9026 2.89471 22.2733C1.06927 26.6438 0.122555 31.3312 0.108623 36.0676L18.1424 36.1207C18.1494 33.7525 18.6228 31.4088 19.5354 29.2235C20.4482 27.0381 21.7824 25.0541 23.4619 23.3844C25.1415 21.7147 27.1334 20.3922 29.324 19.4923C31.5147 18.5926 33.861 18.133 36.2293 18.1399L36.2824 0.106099Z" fill="#5CE1E6"/>
<path d="M36.1432 47.4449C42.3681 47.4632 47.4292 42.4318 47.4475 36.2069C47.4658 29.982 42.4344 24.9209 36.2095 24.9026C29.9846 24.8843 24.9235 29.9157 24.9052 36.1406C24.8869 42.3655 29.9183 47.4266 36.1432 47.4449Z" fill="#5CE1E6"/>
<path d="M47.4475 36.2069C47.4519 34.7268 47.1647 33.2603 46.6022 31.8911C46.0398 30.5219 45.2133 29.277 44.1697 28.2273C43.1261 27.1777 41.8861 26.3437 40.5203 25.7733C39.1544 25.2029 37.6897 24.9069 36.2095 24.9026C34.7293 24.8982 33.2629 25.1855 31.8937 25.7479C30.5245 26.3103 29.2796 27.1369 28.2299 28.1804C27.1802 29.224 26.3463 30.464 25.7759 31.8298C25.2055 33.1957 24.9096 34.6605 24.9052 36.1406L36.1763 36.1737L47.4475 36.2069Z" fill="white"/>
</g>
<defs>
<clipPath id="clip0_3_11">
<rect width="72" height="73" fill="white" transform="translate(0.214722) rotate(0.168545)"/>
</clipPath>
</defs>
</svg>
